HIERARCHY
ROOT HipCenter
{
    OFFSET 0.0 0.0 -0.0
    CHANNELS 6 Xposition Yposition Zposition Zrotation Xrotation Yrotation
    JOINT Spine
    {
        OFFSET 0.0 30.519819259643555 0.0
        CHANNELS 3 Zrotation Xrotation Yrotation
        JOINT ShoulderCenter
        {
            OFFSET 0.0 22.589458465576172 0.0
            CHANNELS 3 Zrotation Xrotation Yrotation
            JOINT LeftShoulder
            {
                OFFSET 18.250019073486328 0.0 0.0
                CHANNELS 3 Zrotation Xrotation Yrotation
                JOINT LeftElbow
                {
                    OFFSET 21.977169036865234 0.0 0.0
                    CHANNELS 3 Zrotation Xrotation Yrotation
                    JOINT LeftWrist
                    {
                        OFFSET 21.642074584960938 0.0 0.0
                        CHANNELS 3 Zrotation Xrotation Yrotation
                        JOINT LeftHand
                        {
                            OFFSET 7.493435859680176 0.0 0.0
                            CHANNELS 3 Zrotation Xrotation Yrotation
                            End Site
                            {
                                OFFSET 2.9973745346069336 0.0 0.0
                            }
                        }
                    }
                }
            }
            JOINT RightShoulder
            {
                OFFSET -18.250019073486328 0.0 0.0
                CHANNELS 3 Zrotation Xrotation Yrotation
                JOINT RightElbow
                {
                    OFFSET -21.977169036865234 0.0 0.0
                    CHANNELS 3 Zrotation Xrotation Yrotation
                    JOINT RightWrist
                    {
                        OFFSET -21.642074584960938 0.0 0.0
                        CHANNELS 3 Zrotation Xrotation Yrotation
                        JOINT RightHand
                        {
                            OFFSET -7.493435859680176 0.0 0.0
                            CHANNELS 3 Zrotation Xrotation Yrotation
                            End Site
                            {
                                OFFSET -2.9973745346069336 0.0 0.0
                            }
                        }
                    }
                }
            }
            End Site
            {
                OFFSET 0.0 9.035784721374512 0.0
            }
        }
    }
    JOINT LeftHip
    {
        OFFSET 8.107311248779297 0.0 0.0
        CHANNELS 3 Zrotation Xrotation Yrotation
        JOINT LeftKnee
        {
            OFFSET 0.0 -35.415802001953125 0.0
            CHANNELS 3 Zrotation Xrotation Yrotation
            JOINT LeftAnkle
            {
                OFFSET 0.0 -37.394744873046875 0.0
                CHANNELS 3 Zrotation Xrotation Yrotation
                JOINT LeftFoot
                {
                    OFFSET 0.0 -10.43188190460205 0.0
                    CHANNELS 3 Zrotation Xrotation Yrotation
                    End Site
                    {
                        OFFSET 0.0 0.0 4.172752857208252
                    }
                }
            }
        }
    }
    JOINT RightHip
    {
        OFFSET -8.107311248779297 0.0 0.0
        CHANNELS 3 Zrotation Xrotation Yrotation
        JOINT RightKnee
        {
            OFFSET 0.0 -35.415802001953125 0.0
            CHANNELS 3 Zrotation Xrotation Yrotation
            JOINT RightAnkle
            {
                OFFSET 0.0 -37.394744873046875 0.0
                CHANNELS 3 Zrotation Xrotation Yrotation
                JOINT RightFoot
                {
                    OFFSET 0.0 -10.43188190460205 0.0
                    CHANNELS 3 Zrotation Xrotation Yrotation
                    End Site
                    {
                        OFFSET 0.0 0.0 4.172752857208252
                    }
                }
            }
        }
    }
}
MOTION
Frames: 4
Frame Time: 0.03333333333333333
-26.89759063720703 1.139989972114563 -355.97601318359375 4.5817335980636 13.348952864288314 -140.56223283623544 -1.262856809648352 -1.6572285814992997 -0.18938382275237947 -6.316552323759386e-07 -4.749799113343119e-07 -0.04975766265028234 -65.07307740676367 -43.76275790037465 -3.9754825033949484 -2.462978513041305e-07 -1.3330837339266794e-06 79.10101622473434 -1.3041178691474633e-05 -75.1689891195342 34.89119392894782 -5.517382872562698e-33 7.951386703658791e-16 7.951386703658791e-16 81.47342746934768 -41.48289575120394 5.265273879348663 4.240981100442336e-07 -1.1972932415589442e-06 -67.42198273926219 -5.854874199769187e-06 -83.91122661374236 -37.64809333931078 0.0 0.0 1.1131941385122307e-14 13.768819209701643 -7.79342533247103 17.948857070039708 -1.6528651567665469 -7.789841289726192 0.05865129521760534 42.200433586601996 20.869951903404797 -18.1554119731952 0.0 0.0 -8.746525374024672e-15 -0.9952063233250372 -4.355652398996326 -30.000214822422738 6.4670840554383915 -9.014972123720591 1.4798181370364183 -12.835515085692752 55.808289245477035 2.9709087665378067 -5.963540027744096e-16 -6.207055731633036e-33 1.1927080055488192e-15
-26.927959442138672 0.947502613067627 -355.9256896972656 4.5406647159179325 13.216924491827807 -140.928535566393 -1.2986306026603478 -1.7090928645128247 -0.188746652700143 1.891821977814514e-07 1.224669544293406e-06 0.10303400908883349 -65.53272277039416 -44.594774936896634 -3.8445966923150805 -1.4344597800761519e-06 -1.9877079353965433e-06 68.98349684755445 3.897344837756952e-06 -53.93935946115003 46.68885719950486 3.1805546814635164e-15 7.95138670365879e-16 -4.770832022195274e-15 81.68830004680355 -40.91471943923605 5.142852280916723 3.1439834824724266e-06 1.7637949596186872e-06 -66.52719778219009 179.9999876454184 -82.9605787007885 148.65944733009815 2.648343778830095e-31 3.1805546814635164e-15 -9.541664044390549e-15 13.576973967110002 -7.898477816000462 18.176243833893345 -1.3378312490512991 -7.64795997245416 0.09756916905928711 42.77487928134308 20.932773192396784 -18.72952689317563 -1.5902773407317584e-15 -2.2069531490250793e-32 1.5902773407317584e-15 -1.2525196268490848 -4.569064628703111 -30.272132560852906 6.519662310339811 -8.894540820765867 1.4874326830988622 -12.603497152400317 55.87299944214713 2.638079003778617 -1.5902773407317584e-15 3.1805546814635168e-15 4.4139062980501586e-32
-26.86823081970215 0.8125642538070679 -355.86181640625 4.666075416150803 13.090662011203626 -141.7718934274178 -1.3080355701290798 -1.7813532047590979 -0.20237978970541554 8.03510720369415e-07 -9.77689849284538e-07 0.828760997403896 -65.72068120879388 -44.44819427926118 -2.9009658860548115 -6.000104210621566e-07 2.3310756331381215e-06 67.06717650512272 9.367010092155334e-06 -63.18257145853319 41.21026393118506 0.0 -5.565970692561154e-15 0.0 81.61635080827185 -40.927957269266074 4.982038410822844 8.807440288545985e-07 5.613804404994842e-07 -65.64826262486308 -179.9999989479982 -77.31902412844407 149.32583598612007 0.0 0.0 -4.770832022195274e-15 13.703680103490832 -7.9478920736735175 18.685380680968674 -1.2484648299897774 -7.659317516318834 0.10233186170868061 44.74789209638752 21.725314831720656 -20.645918671402452 4.770832022195274e-15 -9.931289170612858e-32 -2.385416011097637e-15 -1.4773787853078881 -5.066781451986385 -30.962250019632137 6.983395982321904 -8.29497824512985 1.4276806458427025 -15.943400007532514 53.74303057239003 5.043337196092872 2.385416011097637e-15 -3.1805546814635164e-15 6.620859447075238e-32
-26.513498306274414 0.6203373670578003 -355.9006042480469 5.085508956927514 12.98977800736484 -141.89534906080442 -1.1274147128104268 -1.8671965107281685 -0.21477127155224013 -4.190032652757764e-08 -1.5938709456095421e-06 0.818297655186316 -66.64125512054899 -47.02431312382537 -2.7198159752815094 -4.7275700537512165e-06 3.197058590656765e-06 58.78168882340663 1.4009994346601568e-06 -47.40164358924318 36.40629037234919 -8.827812596100317e-32 -6.361109362927035e-15 -1.5902773407317588e-15 81.08272921594441 -42.50271378823958 1.2115790619233862 1.8405798324093935e-07 -2.0901920451619207e-06 -59.86067523547798 179.99999755291924 -67.64300507500225 141.79263031281593 0.0 -3.1805546814635168e-15 0.0 14.454239583991082 -8.103178292086847 18.8099043866156 -1.750528437716499 -7.775471179892352 0.09644920504135784 45.101531416907484 22.225465015883323 -21.259633161686327 -1.5902773407317584e-15 3.1805546814635168e-15 2.3854160110976376e-15 -0.8786790485815031 -5.762530253528891 -30.979632265351388 6.516968449906075 -8.150206303890874 1.419678187911143 -15.744769858269805 53.67841360670272 4.783828787734999 -2.1866313435061676e-15 -3.1805546814635168e-15 -3.975693351829397e-16
